PathFileType	4	(X/Y/Z)	C:/Users/opensim2020/Desktop/walking_exp_matlab/subject06_walking20_straight_04.trc																																																																																																																															
DataRate	CameraRate	NumFrames	NumMarkers	Units	OrigDataRate	OrigDataStartFrame	OrigNumFrames																																																																																																																											
100	100	5	43	mm	100	2205	126																																																																																																																											
Frame#	Time	LFHD			RFHD			LBHD			RBHD			C7			T10			CLAV			STRN			RBAK			LSHO			LUPA			LELB			LFRM			LWRA			LWRB			LFIN			RSHO			RUPA			RELB			RFRM			RWRA			RWRB			RFIN			LASI			RASI			LPSI			RPSI			LTHI			LKNE			LTIB			LANK			LHEE			LTOE			RTHI			RKNE			RTIB			RANK			RHEE			RTOE			*39			*40			*41			*42		
		X1	Y1	Z1	X2	Y2	Z2	X3	Y3	Z3	X4	Y4	Z4	X5	Y5	Z5	X6	Y6	Z6	X7	Y7	Z7	X8	Y8	Z8	X9	Y9	Z9	X10	Y10	Z10	X11	Y11	Z11	X12	Y12	Z12	X13	Y13	Z13	X14	Y14	Z14	X15	Y15	Z15	X16	Y16	Z16	X17	Y17	Z17	X18	Y18	Z18	X19	Y19	Z19	X20	Y20	Z20	X21	Y21	Z21	X22	Y22	Z22	X23	Y23	Z23	X24	Y24	Z24	X25	Y25	Z25	X26	Y26	Z26	X27	Y27	Z27	X28	Y28	Z28	X29	Y29	Z29	X30	Y30	Z30	X31	Y31	Z31	X32	Y32	Z32	X33	Y33	Z33	X34	Y34	Z34	X35	Y35	Z35	X36	Y36	Z36	X37	Y37	Z37	X38	Y38	Z38	X39	Y39	Z39	X40	Y40	Z40	X41	Y41	Z41	X42	Y42	Z42	X43	Y43	Z43
																																																																																																																																		
48	0.47	-500.54745	1643.00464	-1504.48169	-502.16461	1629.66553	-1373.69287	-636.3703	1592.83386	-1506.32959	-635.61011	1585.12524	-1377.95361	-640.21478	1433.54492	-1443.75818	-691.49884	1107.50244	-1430.875	-531.89905	1353.15186	-1450.43884	-501.64615	1176.25305	-1454.42505	-711.45251	1270.06921	-1349.76489	-601.4325	1382.30249	-1607.13879	-657.5152	1187.67017	-1671.49561	-694.31836	1080.66504	-1677.52234	-718.33282	932.61456	-1700.0343	-696.74738	803.10052	-1659.99622	-755.99353	820.31836	-1697.34399	-748.86505	728.75269	-1694.67175	-563.08875	1391.24719	-1288.17029	-580.60016	1204.70959	-1178.40466	-553.66418	1091.0636	-1153.86377	-476.95798	1003.74255	-1145.19775	-355.32748	932.56537	-1202.25342	-388.11926	900.5332	-1153.79077	-312.14371	868.76154	-1163.8877	-513.26331	947.42761	-1543.69751	-521.25891	947.28546	-1324.53784	-673.51569	968.78943	-1522.68237	-671.99164	975.54572	-1354.40088	-505.50159	639.48389	-1614.97864	-434.71066	494.17645	-1584.13647	-394.66708	243.56046	-1581.1814	-339.20151	78.47228	-1544.2218	-369.92557	52.24636	-1496.04578	-194.47163	92.03634	-1547.28723	-619.30426	616.60815	-1284.62427	-644.59058	492.08456	-1307.75073	-776.21179	253.79596	-1319.34253	-855.16675	86.80704	-1368.58325	-900.80017	70.64294	-1414.10547	-713.16638	35.69704	-1362.66003	-600.49951	1683.18433	-1445.30432	NaN	NaN	NaN	NaN	NaN	NaN	NaN	NaN	NaN
49	0.48	-485.2713	1640.54932	-1505.26758	-486.82703	1627.18701	-1374.40051	-620.98694	1590.09021	-1507.04028	-620.18036	1582.39807	-1378.64331	-624.87103	1431.01001	-1444.46069	-675.78668	1104.53735	-1431.72034	-516.36273	1350.52368	-1451.005	-486.11157	1173.56958	-1454.71094	-696.26642	1267.36304	-1350.41553	-585.7478	1379.34839	-1608.01978	-644.65375	1185.58325	-1672.03638	-683.64874	1079.39832	-1677.6106	-711.16516	932.14941	-1700.39795	-692.30994	801.78583	-1659.5155	-750.91522	820.48682	-1697.24939	-746.93585	728.74506	-1693.63953	-547.8902	1388.54736	-1288.62378	-565.2677	1202.11731	-1178.50562	-537.93329	1089.00891	-1153.79272	-459.21881	1003.97662	-1146.07678	-335.91412	937.16486	-1204.03076	-367.56845	903.72009	-1155.85339	-290.62326	874.65961	-1166.25708	-496.4418	945.06848	-1544.09448	-505.53683	944.80377	-1324.53882	-657.01648	965.58807	-1524.11292	-656.64984	972.68188	-1355.69324	-487.85422	636.84729	-1615.92493	-416.81796	492.11813	-1584.48035	-369.68475	243.06412	-1582.03223	-308.81445	79.79626	-1544.85645	-339.05832	52.30506	-1497.04688	-164.33687	98.23685	-1546.44055	-605.9649	614.99133	-1284.60022	-632.08307	490.52936	-1307.66455	-769.71851	255.06081	-1319.36853	-853.4035	90.32122	-1368.33057	-899.47888	75.65154	-1413.83789	-713.10443	35.63818	-1362.86877	-585.24188	1680.52295	-1446.005	NaN	NaN	NaN	NaN	NaN	NaN	NaN	NaN	NaN
50	0.49	-469.83203	1638.39526	-1506.09082	-471.44983	1625.01624	-1375.1261	-605.05713	1587.45801	-1507.29688	-604.68616	1579.96838	-1379.37598	-609.50262	1428.81812	-1445.32874	-659.77332	1101.89722	-1432.64612	-500.78	1348.29492	-1451.69897	-470.24771	1171.39917	-1455.1272	-680.95984	1264.94031	-1351.34839	-570.11719	1376.80432	-1608.98853	-631.54865	1183.88416	-1672.75537	-672.59918	1078.16064	-1678.17944	-702.69147	931.27539	-1700.18921	-687.19348	800.92279	-1658.65234	-744.98456	821.06635	-1697.38391	-743.65332	729.10455	-1692.75964	-532.65613	1386.14905	-1289.19446	-550.04199	1199.74231	-1178.88245	-522.46387	1087.07556	-1153.98401	-442.1279	1004.0799	-1146.98364	-317.36893	941.32587	-1205.65601	-348.09491	906.48193	-1157.88354	-270.33521	879.8313	-1168.51648	-479.51132	942.87024	-1544.38635	-489.64835	942.59174	-1324.57666	-640.12775	962.78625	-1525.65942	-640.90387	969.97528	-1357.12451	-469.50836	634.77271	-1617.04749	-398.66946	490.42551	-1585.05957	-346.34454	242.68243	-1582.61133	-281.93411	80.80605	-1545.19055	-311.89938	52.49062	-1497.51965	-138.16422	102.66879	-1545.62268	-591.90375	613.52551	-1284.58875	-618.64374	488.93524	-1307.63953	-762.33423	256.6828	-1319.26929	-851.13037	94.58406	-1367.84656	-897.83423	81.63493	-1413.25366	-712.75812	35.74358	-1363.16089	-569.64087	1678.04822	-1446.50232	NaN	NaN	NaN	NaN	NaN	NaN	NaN	NaN	NaN
51	0.5	-454.39151	1636.60107	-1506.92346	-456.08032	1623.17273	-1375.85632	-589.57886	1585.56384	-1508.18176	-589.23328	1577.99792	-1380.22302	-594.06494	1426.85217	-1446.2688	-643.66437	1099.59204	-1433.63562	-485.14749	1346.46887	-1452.53857	-454.19662	1169.70874	-1455.74292	-665.57782	1262.84448	-1352.48633	-554.50031	1374.60889	-1610.11841	-618.06134	1182.60852	-1673.59387	-660.9339	1077.50342	-1678.85449	-693.88776	931.39606	-1700.82288	-680.80188	800.5553	-1658.41492	-737.94196	821.75708	-1697.52637	-739.00641	729.87317	-1692.02966	-517.45984	1384.21069	-1289.93274	-535.30487	1197.9552	-1179.56677	-507.36624	1085.47009	-1154.38	-425.75455	1004.14435	-1148.03723	-299.87305	944.88696	-1207.03638	-329.8446	908.80188	-1159.88	-251.08698	884.49835	-1170.28625	-462.18488	941.0036	-1544.58093	-473.4003	940.76038	-1324.68335	-622.98474	960.57263	-1527.15833	-624.81842	967.53949	-1358.56079	-450.5347	633.46326	-1618.18677	-380.35266	489.297	-1585.78467	-324.76236	242.21875	-1583.29834	-258.72629	81.14223	-1545.43433	-288.3251	52.15866	-1497.88269	-115.20289	105.36974	-1545.41821	-577.22211	612.11536	-1284.60815	-604.10925	487.34814	-1307.55505	-754.047	258.68588	-1319.14368	-848.50769	99.56349	-1367.39722	-895.50037	88.51022	-1412.50256	-712.81647	35.95956	-1362.98682	-554.229	1676.13013	-1447.30847	NaN	NaN	NaN	NaN	NaN	NaN	NaN	NaN	NaN
52	0.51	-438.96219	1635.19287	-1507.74463	-440.60568	1621.63904	-1376.69214	-573.99408	1584.12	-1509.1062	-573.76392	1576.46729	-1381.12231	-578.69989	1425.21655	-1447.37134	-627.41876	1097.65637	-1434.63672	-469.50272	1345.11597	-1453.46008	-437.92731	1168.56921	-1456.45532	-649.99744	1260.9635	-1353.81238	-538.85553	1372.98987	-1611.38196	-604.14984	1181.75012	-1674.62	-648.5827	1077.21252	-1679.60791	-683.61243	931.40686	-1701.12146	-673.16022	800.84888	-1658.48169	-729.73499	822.58893	-1697.74817	-732.81177	730.85193	-1691.42224	-502.39371	1382.77075	-1290.83081	-520.63599	1196.65527	-1180.3313	-492.61658	1084.20093	-1155.15344	-410.09464	1004.15491	-1149.26819	-283.33444	947.73627	-1208.25586	-312.80383	910.42883	-1161.80701	-233.44006	888.17767	-1171.86731	-444.59103	939.67035	-1544.63086	-457.0015	939.1698	-1324.94556	-605.56836	958.9223	-1528.47021	-608.30255	965.43726	-1360.0022	-431.12268	632.92926	-1618.9574	-361.89154	488.8042	-1586.40649	-305.05576	241.60674	-1583.99365	-238.95816	80.5525	-1545.78943	-268.75049	51.23154	-1498.52637	-95.92983	106.28686	-1544.52185	-561.39777	610.58459	-1284.75977	-588.40881	485.74069	-1307.58997	-744.91211	261.03714	-1319.00562	-844.8819	105.40096	-1366.95557	-892.30798	96.51768	-1411.77002	-712.47076	36.11208	-1363.26794	-538.66223	1674.63977	-1448.13257	NaN	NaN	NaN	NaN	NaN	NaN	NaN	NaN	NaN
